<svg id="burger" width="41" height="31" fill="none" xmlns="http://www.w3.org/2000/svg"><path id="Vector" fill-rule="evenodd" clip-rule="evenodd" d="M38.722 0C39.98 0 41 .991 41 2.214c0 1.223-1.02 2.215-2.278 2.215H2.278C1.02 4.429 0 3.437 0 2.214 0 .991 1.02 0 2.278 0h36.444ZM31.89 15.5c0-1.223-1.02-2.214-2.278-2.214H2.278C1.02 13.286 0 14.277 0 15.5c0 1.223 1.02 2.214 2.278 2.214H29.61c1.258 0 2.278-.991 2.278-2.214ZM18.222 28.786c0-1.223-1.02-2.215-2.278-2.215H2.278C1.02 26.571 0 27.563 0 28.786 0 30.009 1.02 31 2.278 31h13.666c1.258 0 2.278-.991 2.278-2.214Z" fill="#193855"/></svg>