<svg viewBox="0 0 70 48" fill="none" xmlns="http://www.w3.org/2000/svg"><g id="Group 3"><path id="Vector" d="M67.643 8.261c-.792-2.875-3.125-5.14-6.088-5.909C56.185.955 34.654.955 34.654.955s-21.532 0-26.902 1.397c-2.963.769-5.296 3.034-6.088 5.91C.226 13.473.226 24.35.226 24.35s0 10.876 1.438 16.089c.792 2.876 3.125 5.14 6.088 5.91 5.37 1.396 26.902 1.396 26.902 1.396s21.532 0 26.9-1.396c2.964-.77 5.297-3.034 6.089-5.91 1.439-5.213 1.439-16.089 1.439-16.089s0-10.876-1.44-16.088" fill="#E90202"/><path id="Vector_2" d="M26.354 35.723 49.1 24.35 26.354 12.978v22.745Z" fill="#EAE7E7"/></g></svg>