<svg aria-hidden="true" style="width:0;height:0;position:absolute;overflow:hidden" xmlns="http://www.w3.org/2000/svg"><defs><symbol id="icon-youtube" viewBox="0 0 45 32"><path fill="red" style="fill:var(--color1,red)" d="M43.962 4.997c-.515-1.967-2.033-3.516-3.96-4.041-3.493-.955-17.5-.955-17.5-.955s-14.007 0-17.5.955c-1.927.526-3.445 2.075-3.96 4.041C.106 8.562.106 16 .106 16s0 7.438.936 11.003c.515 1.967 2.033 3.516 3.96 4.042 3.493.955 17.5.955 17.5.955s14.007 0 17.5-.955c1.927-.526 3.445-2.075 3.96-4.042.936-3.565.936-11.003.936-11.003s0-7.438-.936-11.003z"/><path fill="#fff" style="fill:var(--color2,#fff)" d="m16.827 22.525 11.707-6.753-11.707-6.754v13.507z"/></symbol><symbol id="icon-facebook" viewBox="0 0 34 32"><path fill="#1877f2" style="fill:var(--color3,#1877f2)" d="M33.291 16c0-8.837-7.452-16-16.645-16S.001 7.163.001 16c0 7.986 6.087 14.605 14.045 15.806V20.625H9.82V16h4.226v-3.525c0-4.01 2.485-6.225 6.287-6.225 1.821 0 3.726.313 3.726.313v3.938H21.96c-2.068 0-2.713 1.233-2.713 2.499v3.001h4.616l-.738 4.625h-3.879v11.181c7.958-1.2 14.045-7.82 14.045-15.806z"/><path fill="#fff" style="fill:var(--color2,#fff)" d="M23.125 20.625 23.863 16h-4.616v-3.001c0-1.265.645-2.499 2.713-2.499h2.099V6.562s-1.905-.313-3.726-.313c-3.802 0-6.287 2.215-6.287 6.225v3.525H9.82v4.625h4.226v11.181a17.547 17.547 0 0 0 5.202 0V20.624h3.878z"/></symbol><symbol id="icon-telegram" viewBox="0 0 34 32"><path fill="#37AEE2" style="fill:var(--color4,#37aee2)" d="M16.996 32c9.193 0 16.645-7.163 16.645-16S26.189 0 16.996 0 .351 7.163.351 16s7.452 16 16.645 16z"/><path fill="#fff" style="fill:var(--color2,#fff)" d="m7.278 15.861 11.209-4.439c1.106-.462 4.859-1.942 4.859-1.942s1.732-.647 1.588.925c-.048.647-.433 2.913-.818 5.364l-1.203 7.26s-.096 1.064-.914 1.249-2.165-.647-2.405-.832c-.192-.139-3.608-2.22-4.859-3.237-.337-.277-.722-.832.048-1.48a180.041 180.041 0 0 0 5.051-4.624c.577-.555 1.155-1.85-1.251-.277L11.8 18.221s-.77.462-2.213.046-3.127-.971-3.127-.971-1.155-.694.818-1.434z"/></symbol><symbol id="icon-twitter" viewBox="0 0 34 32"><path fill="#1da1f2" style="fill:var(--color5,#1da1f2)" d="M16.966 32c9.193 0 16.645-7.163 16.645-16S26.159 0 16.966 0 .321 7.163.321 16s7.452 16 16.645 16z"/><path fill="#fff" style="fill:var(--color2,#fff)" d="M26.953 9.847a8.416 8.416 0 0 1-2.353.62 3.984 3.984 0 0 0 1.802-2.179 8.397 8.397 0 0 1-2.602.956A4.177 4.177 0 0 0 20.809 8c-2.263 0-4.098 1.764-4.098 3.939 0 .308.037.609.107.898-3.406-.164-6.425-1.732-8.447-4.116a3.802 3.802 0 0 0-.555 1.98c0 1.366.722 2.572 1.823 3.278a4.207 4.207 0 0 1-1.857-.493v.049c0 1.909 1.413 3.501 3.287 3.863a4.26 4.26 0 0 1-1.851.067c.521 1.565 2.035 2.704 3.828 2.736a8.436 8.436 0 0 1-5.089 1.686c-.332 0-.658-.019-.978-.056a11.947 11.947 0 0 0 6.282 1.77c7.537 0 11.659-6.002 11.659-11.207a9.53 9.53 0 0 0-.012-.509 8.162 8.162 0 0 0 2.046-2.04z"/></symbol><symbol id="icon-tick" viewBox="0 0 32 32"><path d="M16 32C7.174 32 0 24.826 0 16S7.174 0 16 0s16 7.174 16 16-7.174 16-16 16zm0-29.767C8.409 2.233 2.233 8.41 2.233 16S8.41 29.767 16 29.767c7.591 0 13.767-6.177 13.767-13.767S23.59 2.233 16 2.233z"/><path d="M13.886 21.329c-.298 0-.58-.119-.789-.328l-4.212-4.212c-.432-.432-.432-1.146 0-1.578s1.146-.432 1.578 0l3.423 3.423 7.65-7.65c.432-.432 1.146-.432 1.578 0s.432 1.146 0 1.578l-8.439 8.439a1.116 1.116 0 0 1-.789.328z"/></symbol></defs></svg>