<svg id="burger" width="41" height="31" viewBox="0 0 41 31" fill="none" xmlns="http://www.w3.org/2000/svg">
<path id="Vector" fill-rule="evenodd" clip-rule="evenodd" d="M38.7222 0C39.9802 0 41 0.99138 41 2.21429C41 3.43719 39.9802 4.42857 38.7222 4.42857H2.27778C1.01976 4.42857 0 3.43719 0 2.21429C0 0.99138 1.01976 0 2.27778 0H38.7222ZM31.8889 15.5C31.8889 14.277 30.8691 13.2857 29.6111 13.2857H2.27778C1.01976 13.2857 0 14.277 0 15.5C0 16.7229 1.01976 17.7143 2.27778 17.7143H29.6111C30.8691 17.7143 31.8889 16.7229 31.8889 15.5ZM18.2222 28.7857C18.2222 27.5628 17.2025 26.5714 15.9444 26.5714H2.27778C1.01976 26.5714 0 27.5628 0 28.7857C0 30.0087 1.01976 31 2.27778 31H15.9444C17.2025 31 18.2222 30.0087 18.2222 28.7857Z" fill="#193855"/>
</svg>
