<svg viewBox="0 0 70 48" fill="none" xmlns="http://www.w3.org/2000/svg">
<g id="Group 3">
<path id="Vector" d="M67.6431 8.26147C66.8512 5.3856 64.5182 3.12073 61.5552 2.3521C56.1859 0.9552 34.6538 0.9552 34.6538 0.9552C34.6538 0.9552 13.1219 0.9552 7.75229 2.3521C4.78932 3.12073 2.45574 5.3856 1.66438 8.26147C0.225739 13.4741 0.225739 24.3502 0.225739 24.3502C0.225739 24.3502 0.225739 35.2257 1.66438 40.4388C2.45574 43.315 4.78932 45.5793 7.752 46.3488C13.1216 47.7451 34.6535 47.7451 34.6535 47.7451C34.6535 47.7451 56.1856 47.7451 61.5549 46.3488C64.5179 45.5796 66.8509 43.315 67.6428 40.4391C69.0818 35.2259 69.0818 24.3504 69.0818 24.3504C69.0818 24.3504 69.0818 13.4744 67.6428 8.26176" fill="#E90202"/>
<path id="Vector_2" d="M26.3537 35.7226L49.1008 24.3507L26.3537 12.9775V35.7226Z" fill="#EAE7E7"/>
</g>
</svg>
