<svg aria-hidden="true" style="position: absolute; width: 0; height: 0; overflow: hidden;" version="1.1" xmlns="http://www.w3.org/2000/svg" xmlns:xlink="http://www.w3.org/1999/xlink">
<defs>
<symbol id="icon-youtube" viewBox="0 0 45 32">
<path fill="#f00" style="fill: var(--color1, #f00)" d="M43.962 4.997c-0.515-1.967-2.033-3.516-3.96-4.041-3.493-0.955-17.5-0.955-17.5-0.955s-14.007 0-17.5 0.955c-1.927 0.526-3.445 2.075-3.96 4.041-0.936 3.565-0.936 11.003-0.936 11.003s0 7.438 0.936 11.003c0.515 1.967 2.033 3.516 3.96 4.042 3.493 0.955 17.5 0.955 17.5 0.955s14.007 0 17.5-0.955c1.927-0.526 3.445-2.075 3.96-4.042 0.936-3.565 0.936-11.003 0.936-11.003s0-7.438-0.936-11.003z"></path>
<path fill="#fff" style="fill: var(--color2, #fff)" d="M16.827 22.525l11.707-6.753-11.707-6.754v13.507z"></path>
</symbol>
<symbol id="icon-facebook" viewBox="0 0 34 32">
<path fill="#1877f2" style="fill: var(--color3, #1877f2)" d="M33.291 16c0-8.837-7.452-16-16.645-16s-16.645 7.163-16.645 16c0 7.986 6.087 14.605 14.045 15.806v-11.181h-4.226v-4.625h4.226v-3.525c0-4.010 2.485-6.225 6.287-6.225 1.821 0 3.726 0.313 3.726 0.313v3.938h-2.099c-2.068 0-2.713 1.233-2.713 2.499v3.001h4.616l-0.738 4.625h-3.879v11.181c7.958-1.2 14.045-7.82 14.045-15.806z"></path>
<path fill="#fff" style="fill: var(--color2, #fff)" d="M23.125 20.625l0.738-4.625h-4.616v-3.001c0-1.265 0.645-2.499 2.713-2.499h2.099v-3.938c0 0-1.905-0.313-3.726-0.313-3.802 0-6.287 2.215-6.287 6.225v3.525h-4.226v4.625h4.226v11.181c0.86 0.13 1.73 0.195 2.601 0.194 0.885 0 1.753-0.067 2.601-0.194v-11.181h3.878z"></path>
</symbol>
<symbol id="icon-telegram" viewBox="0 0 34 32">
<path fill="#37AEE2" style="fill: var(--color4, #37AEE2)" d="M16.996 32c9.193 0 16.645-7.163 16.645-16s-7.452-16-16.645-16-16.645 7.163-16.645 16c0 8.837 7.452 16 16.645 16z"></path>
<path fill="#fff" style="fill: var(--color2, #fff)" d="M7.278 15.861l11.209-4.439c1.106-0.462 4.859-1.942 4.859-1.942s1.732-0.647 1.588 0.925c-0.048 0.647-0.433 2.913-0.818 5.364l-1.203 7.26c0 0-0.096 1.064-0.914 1.249s-2.165-0.647-2.405-0.832c-0.192-0.139-3.608-2.22-4.859-3.237-0.337-0.277-0.722-0.832 0.048-1.48 1.732-1.526 3.801-3.422 5.051-4.624 0.577-0.555 1.155-1.85-1.251-0.277l-6.783 4.393c0 0-0.77 0.462-2.213 0.046s-3.127-0.971-3.127-0.971-1.155-0.694 0.818-1.434z"></path>
</symbol>
<symbol id="icon-twitter" viewBox="0 0 34 32">
<path fill="#1da1f2" style="fill: var(--color5, #1da1f2)" d="M16.966 32c9.193 0 16.645-7.163 16.645-16s-7.452-16-16.645-16c-9.193 0-16.645 7.163-16.645 16s7.452 16 16.645 16z"></path>
<path fill="#fff" style="fill: var(--color2, #fff)" d="M26.953 9.847c-0.734 0.314-1.525 0.525-2.353 0.62 0.846-0.488 1.496-1.259 1.802-2.179-0.791 0.452-1.669 0.779-2.602 0.956-0.748-0.765-1.814-1.244-2.991-1.244-2.263 0-4.098 1.764-4.098 3.939 0 0.308 0.037 0.609 0.107 0.898-3.406-0.164-6.425-1.732-8.447-4.116-0.353 0.582-0.555 1.258-0.555 1.98 0 1.366 0.722 2.572 1.823 3.278-0.672-0.020-1.304-0.198-1.857-0.493v0.049c0 1.909 1.413 3.501 3.287 3.863-0.344 0.090-0.706 0.138-1.079 0.138-0.264 0-0.521-0.025-0.772-0.071 0.521 1.565 2.035 2.704 3.828 2.736-1.402 1.056-3.169 1.686-5.089 1.686-0.332 0-0.658-0.019-0.978-0.056 1.814 1.117 3.967 1.77 6.282 1.77 7.537 0 11.659-6.002 11.659-11.207 0-0.171-0.003-0.341-0.012-0.509 0.802-0.557 1.497-1.25 2.046-2.040z"></path>
</symbol>
<symbol id="icon-tick" viewBox="0 0 32 32">
<path d="M16 32c-8.826 0-16-7.174-16-16s7.174-16 16-16c8.826 0 16 7.174 16 16s-7.174 16-16 16zM16 2.233c-7.591 0-13.767 6.177-13.767 13.767s6.177 13.767 13.767 13.767c7.591 0 13.767-6.177 13.767-13.767s-6.177-13.767-13.767-13.767z"></path>
<path d="M13.886 21.329c-0.298 0-0.58-0.119-0.789-0.328l-4.212-4.212c-0.432-0.432-0.432-1.146 0-1.578s1.146-0.432 1.578 0l3.423 3.423 7.65-7.65c0.432-0.432 1.146-0.432 1.578 0s0.432 1.146 0 1.578l-8.439 8.439c-0.208 0.208-0.491 0.328-0.789 0.328z"></path>
</symbol>
</defs>
</svg>
